<mxfile host="app.diagrams.net" modified="2023-11-08T08:14:21.297Z" agent="Mozilla/5.0 (Macintosh; Intel Mac OS X 10_15_7) AppleWebKit/537.36 (KHTML, like Gecko) Chrome/119.0.0.0 Safari/537.36" etag="cGHOmATzWhevyNZ058Oc" version="22.0.8" type="device">
  <diagram name="Seite-1" id="_FQVYKr5ARGDOp2DAqd-">
    <mxGraphModel dx="977" dy="617" grid="1" gridSize="10" guides="1" tooltips="1" connect="1" arrows="1" fold="1" page="1" pageScale="1" pageWidth="827" pageHeight="1169" math="0" shadow="0">
      <root>
        <mxCell id="0" />
        <mxCell id="1" parent="0" />
        <mxCell id="GyW-rlFqUyG9d3HSxGv--3" value="" style="group;" vertex="1" connectable="0" parent="1">
          <mxGeometry x="354" y="39" width="96" height="60" as="geometry" />
        </mxCell>
        <mxCell id="GyW-rlFqUyG9d3HSxGv--1" value="" style="ellipse;whiteSpace=wrap;html=1;fillColor=#dae8fc;strokeColor=#6c8ebf;" vertex="1" parent="GyW-rlFqUyG9d3HSxGv--3">
          <mxGeometry width="96" height="60" as="geometry" />
        </mxCell>
        <mxCell id="GyW-rlFqUyG9d3HSxGv--2" value="Start" style="text;html=1;strokeColor=none;fillColor=none;align=center;verticalAlign=middle;whiteSpace=wrap;rounded=0;" vertex="1" parent="GyW-rlFqUyG9d3HSxGv--3">
          <mxGeometry x="12" y="11.25" width="72" height="37.5" as="geometry" />
        </mxCell>
        <mxCell id="GyW-rlFqUyG9d3HSxGv--7" value="" style="group;" vertex="1" connectable="0" parent="1">
          <mxGeometry x="362" y="530" width="96" height="60" as="geometry" />
        </mxCell>
        <mxCell id="GyW-rlFqUyG9d3HSxGv--5" value="" style="ellipse;whiteSpace=wrap;html=1;fillColor=#dae8fc;strokeColor=#6c8ebf;" vertex="1" parent="GyW-rlFqUyG9d3HSxGv--7">
          <mxGeometry x="-2" width="96" height="60" as="geometry" />
        </mxCell>
        <mxCell id="GyW-rlFqUyG9d3HSxGv--6" value="End" style="text;html=1;strokeColor=none;fillColor=none;align=center;verticalAlign=middle;whiteSpace=wrap;rounded=0;" vertex="1" parent="GyW-rlFqUyG9d3HSxGv--7">
          <mxGeometry x="8" y="11.25" width="72" height="37.5" as="geometry" />
        </mxCell>
        <mxCell id="GyW-rlFqUyG9d3HSxGv--8" value="Versandkosten" style="text;html=1;strokeColor=none;fillColor=none;align=center;verticalAlign=middle;whiteSpace=wrap;rounded=0;" vertex="1" parent="1">
          <mxGeometry x="350" y="10" width="100" height="30" as="geometry" />
        </mxCell>
        <mxCell id="GyW-rlFqUyG9d3HSxGv--12" value="" style="group" vertex="1" connectable="0" parent="1">
          <mxGeometry x="331" y="120" width="132" height="60" as="geometry" />
        </mxCell>
        <mxCell id="GyW-rlFqUyG9d3HSxGv--9" value="" style="shape=parallelogram;perimeter=parallelogramPerimeter;whiteSpace=wrap;html=1;fixedSize=1;fillColor=#f8cecc;strokeColor=#b85450;" vertex="1" parent="GyW-rlFqUyG9d3HSxGv--12">
          <mxGeometry x="12" width="120" height="60" as="geometry" />
        </mxCell>
        <mxCell id="GyW-rlFqUyG9d3HSxGv--10" value="bestellwert" style="text;html=1;strokeColor=none;fillColor=none;align=center;verticalAlign=middle;whiteSpace=wrap;rounded=0;" vertex="1" parent="GyW-rlFqUyG9d3HSxGv--12">
          <mxGeometry x="42" y="15" width="60" height="30" as="geometry" />
        </mxCell>
        <mxCell id="GyW-rlFqUyG9d3HSxGv--11" value="E" style="text;html=1;strokeColor=none;fillColor=none;align=center;verticalAlign=middle;whiteSpace=wrap;rounded=0;" vertex="1" parent="GyW-rlFqUyG9d3HSxGv--12">
          <mxGeometry y="30" width="60" height="30" as="geometry" />
        </mxCell>
        <mxCell id="GyW-rlFqUyG9d3HSxGv--17" style="edgeStyle=orthogonalEdgeStyle;rounded=0;orthogonalLoop=1;jettySize=auto;html=1;exitX=0.5;exitY=1;exitDx=0;exitDy=0;entryX=0.5;entryY=0;entryDx=0;entryDy=0;" edge="1" parent="1" source="GyW-rlFqUyG9d3HSxGv--1" target="GyW-rlFqUyG9d3HSxGv--9">
          <mxGeometry relative="1" as="geometry" />
        </mxCell>
        <mxCell id="GyW-rlFqUyG9d3HSxGv--18" style="edgeStyle=orthogonalEdgeStyle;rounded=0;orthogonalLoop=1;jettySize=auto;html=1;exitX=0.5;exitY=1;exitDx=0;exitDy=0;entryX=0.427;entryY=-0.033;entryDx=0;entryDy=0;entryPerimeter=0;" edge="1" parent="1" source="GyW-rlFqUyG9d3HSxGv--14" target="GyW-rlFqUyG9d3HSxGv--5">
          <mxGeometry relative="1" as="geometry" />
        </mxCell>
        <mxCell id="GyW-rlFqUyG9d3HSxGv--22" style="edgeStyle=orthogonalEdgeStyle;rounded=0;orthogonalLoop=1;jettySize=auto;html=1;exitX=0.5;exitY=1;exitDx=0;exitDy=0;entryX=0.5;entryY=0;entryDx=0;entryDy=0;" edge="1" parent="1" source="GyW-rlFqUyG9d3HSxGv--19" target="GyW-rlFqUyG9d3HSxGv--14">
          <mxGeometry relative="1" as="geometry" />
        </mxCell>
        <mxCell id="GyW-rlFqUyG9d3HSxGv--25" value="" style="group;" vertex="1" connectable="0" parent="1">
          <mxGeometry x="362" y="200" width="80" height="80" as="geometry" />
        </mxCell>
        <mxCell id="GyW-rlFqUyG9d3HSxGv--23" value="" style="rhombus;whiteSpace=wrap;html=1;fillColor=#f5f5f5;strokeColor=#666666;fontColor=#333333;" vertex="1" parent="GyW-rlFqUyG9d3HSxGv--25">
          <mxGeometry width="80" height="80" as="geometry" />
        </mxCell>
        <mxCell id="GyW-rlFqUyG9d3HSxGv--24" value="bestelltwert &amp;gt;= 200" style="text;html=1;strokeColor=none;fillColor=none;align=center;verticalAlign=middle;whiteSpace=wrap;rounded=0;" vertex="1" parent="GyW-rlFqUyG9d3HSxGv--25">
          <mxGeometry x="22.5" y="37" width="35" height="12.5" as="geometry" />
        </mxCell>
        <mxCell id="GyW-rlFqUyG9d3HSxGv--26" style="edgeStyle=orthogonalEdgeStyle;rounded=0;orthogonalLoop=1;jettySize=auto;html=1;exitX=0.5;exitY=1;exitDx=0;exitDy=0;entryX=0.5;entryY=0;entryDx=0;entryDy=0;" edge="1" parent="1" source="GyW-rlFqUyG9d3HSxGv--9" target="GyW-rlFqUyG9d3HSxGv--23">
          <mxGeometry relative="1" as="geometry" />
        </mxCell>
        <mxCell id="GyW-rlFqUyG9d3HSxGv--29" value="" style="group" vertex="1" connectable="0" parent="1">
          <mxGeometry x="180" y="263" width="130" height="30" as="geometry" />
        </mxCell>
        <mxCell id="GyW-rlFqUyG9d3HSxGv--27" value="" style="rounded=1;whiteSpace=wrap;html=1;" vertex="1" parent="GyW-rlFqUyG9d3HSxGv--29">
          <mxGeometry width="130" height="30" as="geometry" />
        </mxCell>
        <mxCell id="GyW-rlFqUyG9d3HSxGv--28" value="versandpauschale := 0" style="text;html=1;strokeColor=#82b366;fillColor=#d5e8d4;align=center;verticalAlign=middle;whiteSpace=wrap;rounded=0;" vertex="1" parent="GyW-rlFqUyG9d3HSxGv--29">
          <mxGeometry width="130" height="30" as="geometry" />
        </mxCell>
        <mxCell id="GyW-rlFqUyG9d3HSxGv--35" value="" style="group;" vertex="1" connectable="0" parent="1">
          <mxGeometry x="489" y="265" width="151" height="28" as="geometry" />
        </mxCell>
        <mxCell id="GyW-rlFqUyG9d3HSxGv--33" value="" style="rounded=1;whiteSpace=wrap;html=1;fillColor=#d5e8d4;strokeColor=#82b366;" vertex="1" parent="GyW-rlFqUyG9d3HSxGv--35">
          <mxGeometry width="151" height="28" as="geometry" />
        </mxCell>
        <mxCell id="GyW-rlFqUyG9d3HSxGv--32" value="versandpauschale := 5.5" style="text;html=1;align=center;verticalAlign=middle;whiteSpace=wrap;rounded=0;glass=1;" vertex="1" parent="GyW-rlFqUyG9d3HSxGv--35">
          <mxGeometry x="5.5" y="1.5" width="140" height="25" as="geometry" />
        </mxCell>
        <mxCell id="GyW-rlFqUyG9d3HSxGv--36" style="edgeStyle=orthogonalEdgeStyle;rounded=0;orthogonalLoop=1;jettySize=auto;html=1;exitX=1;exitY=0.5;exitDx=0;exitDy=0;entryX=0.5;entryY=0;entryDx=0;entryDy=0;" edge="1" parent="1" source="GyW-rlFqUyG9d3HSxGv--23" target="GyW-rlFqUyG9d3HSxGv--32">
          <mxGeometry relative="1" as="geometry" />
        </mxCell>
        <mxCell id="GyW-rlFqUyG9d3HSxGv--37" style="edgeStyle=orthogonalEdgeStyle;rounded=0;orthogonalLoop=1;jettySize=auto;html=1;exitX=0;exitY=0.5;exitDx=0;exitDy=0;entryX=0.454;entryY=-0.033;entryDx=0;entryDy=0;entryPerimeter=0;" edge="1" parent="1" source="GyW-rlFqUyG9d3HSxGv--23" target="GyW-rlFqUyG9d3HSxGv--28">
          <mxGeometry relative="1" as="geometry" />
        </mxCell>
        <mxCell id="GyW-rlFqUyG9d3HSxGv--38" value="Ja" style="text;html=1;strokeColor=none;fillColor=none;align=center;verticalAlign=middle;whiteSpace=wrap;rounded=0;" vertex="1" parent="1">
          <mxGeometry x="281" y="210" width="60" height="30" as="geometry" />
        </mxCell>
        <mxCell id="GyW-rlFqUyG9d3HSxGv--39" value="Nein" style="text;html=1;strokeColor=none;fillColor=none;align=center;verticalAlign=middle;whiteSpace=wrap;rounded=0;" vertex="1" parent="1">
          <mxGeometry x="460" y="210" width="60" height="30" as="geometry" />
        </mxCell>
        <mxCell id="GyW-rlFqUyG9d3HSxGv--21" value="" style="group" vertex="1" connectable="0" parent="1">
          <mxGeometry x="340" y="320" width="140" height="60" as="geometry" />
        </mxCell>
        <mxCell id="GyW-rlFqUyG9d3HSxGv--19" value="" style="rounded=0;whiteSpace=wrap;html=1;fillColor=#ffe6cc;strokeColor=#d79b00;" vertex="1" parent="GyW-rlFqUyG9d3HSxGv--21">
          <mxGeometry width="123.92" height="60" as="geometry" />
        </mxCell>
        <mxCell id="GyW-rlFqUyG9d3HSxGv--20" value="rechnungsbetrag := bestellwert + versandpauschale" style="text;html=1;align=center;verticalAlign=middle;whiteSpace=wrap;rounded=0;" vertex="1" parent="GyW-rlFqUyG9d3HSxGv--21">
          <mxGeometry x="10" y="5" width="111.33" height="50" as="geometry" />
        </mxCell>
        <mxCell id="GyW-rlFqUyG9d3HSxGv--13" value="" style="group" vertex="1" connectable="0" parent="1">
          <mxGeometry x="341" y="420" width="132" height="60" as="geometry" />
        </mxCell>
        <mxCell id="GyW-rlFqUyG9d3HSxGv--14" value="" style="shape=parallelogram;perimeter=parallelogramPerimeter;whiteSpace=wrap;html=1;fixedSize=1;fillColor=#f8cecc;strokeColor=#b85450;" vertex="1" parent="GyW-rlFqUyG9d3HSxGv--13">
          <mxGeometry width="120" height="60" as="geometry" />
        </mxCell>
        <mxCell id="GyW-rlFqUyG9d3HSxGv--15" value="rechnungsbetrag" style="text;html=1;strokeColor=none;fillColor=none;align=center;verticalAlign=middle;whiteSpace=wrap;rounded=0;" vertex="1" parent="GyW-rlFqUyG9d3HSxGv--13">
          <mxGeometry x="33" y="15" width="60" height="30" as="geometry" />
        </mxCell>
        <mxCell id="GyW-rlFqUyG9d3HSxGv--16" value="A" style="text;html=1;strokeColor=none;fillColor=none;align=center;verticalAlign=middle;whiteSpace=wrap;rounded=0;" vertex="1" parent="GyW-rlFqUyG9d3HSxGv--13">
          <mxGeometry x="-12" y="32" width="60" height="30" as="geometry" />
        </mxCell>
        <mxCell id="GyW-rlFqUyG9d3HSxGv--44" style="edgeStyle=orthogonalEdgeStyle;rounded=0;orthogonalLoop=1;jettySize=auto;html=1;exitX=0.5;exitY=1;exitDx=0;exitDy=0;entryX=1;entryY=0.5;entryDx=0;entryDy=0;" edge="1" parent="1" source="GyW-rlFqUyG9d3HSxGv--32" target="GyW-rlFqUyG9d3HSxGv--20">
          <mxGeometry relative="1" as="geometry" />
        </mxCell>
        <mxCell id="GyW-rlFqUyG9d3HSxGv--45" style="edgeStyle=orthogonalEdgeStyle;rounded=0;orthogonalLoop=1;jettySize=auto;html=1;exitX=0.5;exitY=1;exitDx=0;exitDy=0;entryX=0;entryY=0.5;entryDx=0;entryDy=0;" edge="1" parent="1" source="GyW-rlFqUyG9d3HSxGv--28" target="GyW-rlFqUyG9d3HSxGv--19">
          <mxGeometry relative="1" as="geometry" />
        </mxCell>
      </root>
    </mxGraphModel>
  </diagram>
</mxfile>
